<?xml version="1.0" encoding="UTF-8"?><svg id="Layer_2" xmlns="http://www.w3.org/2000/svg" viewBox="0 0 114.34 48"><g id="Layer_1-2"><path d="M5.83,47.48c-1.5,0-2.6.29-3.17.29-.35,0-.58-.12-.58-.69.06-4.15-1.96-11.31-2.08-15.4,0-.29.17-.52.4-.52s.52.17.58.58c2.54,10.9,4.73,15.17,12.86,15.17,5.31,0,7.04-4.79,7.04-8.36,0-5.88-4.9-9.75-9.69-13.38C5.65,21,.75,17.13.75,11.02.75,4.1,5.42,0,11.71,0c3.46,0,5.13.52,7.04.52,1.21,0,2.25-.29,2.83-.29.35,0,.58.12.58.75,0,4.61.87,10.85,1.04,13.5.06.58-.06.87-.4.87-.29,0-.46-.23-.58-.81-1.62-10.5-3.63-13.5-11.02-13.5-4.56,0-6.75,3.58-6.75,7.61,0,5.02,4.27,8.42,9.4,12.29,5.71,4.27,10.73,8.31,10.73,15.4s-4.56,11.65-11.88,11.65c-2.42,0-5.19-.52-6.86-.52Z"/><path d="M46.4,38.21c-.28,0-.34.16-.45.53l.4,1.33c.1-.38.19-.77.28-1.17.11-.46,0-.69-.23-.69Z"/><path d="M64.09,16.32c-.72,0-1.55.07-2.37.14h0c-.69.06-1.38.12-2.01.15-2.77,0-5.3-.17-8.19-.17h-.4c-2.88,0-5.25.17-8.25.17h-2.77c-1.23,0-2.85-.19-4.12-.26-1.19-.52-2.57-.77-4.07-.77-5.36,0-9.4,3.46-9.4,8.02,0,2.02,1.09,3.75,2.88,3.75,1.56,0,2.48-.98,2.48-2.48,0-1.73-.87-2.77-.87-4.56,0-2.31,1.33-3.58,3.81-3.58,2.83,0,4.96,1.85,4.96,8.14v.75c0,1.44-.92,2.88-2.25,3.46-6.33,3.01-12.84,6.71-12.25,12.95.35,3.75,3.68,6.49,7.4,5.88,2.48-.41,3.79-2.19,5.89-6.42.46-.87,1.33-.87,1.1.12-1.04,4.33,1.56,6.4,4.33,6.4,3.27,0,5.11-3.02,6.37-7.93l-.4-1.33s0,0,0,0c-1.15,4.53-2.96,6.49-3.95,6.49s-1.85-.69-1.85-3.29c0-5.77.29-11.59.29-17.36,0-2.83-.73-4.93-1.97-6.4,1.04.76,1.94,2.09,2.61,4.38l4.87,16.19c.11-.37.17-.53.45-.53.23,0,.34.23.23.69-.09.4-.18.79-.28,1.17l2.11,7.01c.12.4.46.63.87.63h.81c.4,0,.75-.23.87-.63l6.93-23.57h0s.28-.94.28-.94c1.14-3.85,2.78-5,4.85-5.25h0c.44-.29.96-.48,1.54-.55,0-.33-.18-.44-.51-.44ZM35.77,34.44c0,5.76-3.05,9.87-6.42,9.81-1.77-.03-3.24-1.4-3.54-3.14-.83-4.85,2.28-8.51,7.71-11.22,1.33-.63,2.25,0,2.25,1.39v3.17ZM57.05,23.36l-4.85,16.38c-.4,1.33-.98,1.33-1.38,0l-4.73-16.38c-1.27-4.27-.81-6.11,5.02-6.11h.4c6.4,0,6.75,1.96,5.54,6.11Z"/><path d="M46.4,38.21c-.28,0-.34.16-.45.53l.4,1.33c.1-.38.19-.77.28-1.17.11-.46,0-.69-.23-.69Z"/><path d="M73.54,35.3c-1.16-1.97-3.19-3.85-6.22-6.34-3.87-3.17-6.06-5.02-6.06-7.84,0-1.66.65-3.06,1.8-3.8h0c.44-.29.96-.48,1.54-.55.17-.02.34-.03.52-.03,3.43,0,5.75,1.75,7.17,5.83.4,1.14.72,2.47.98,4,.25.26.54.47.87.6.02-.1.04-.23.04-.39,0-1.49-.44-3.38-.56-7.51-.02-.83-.03-1.74-.02-2.76,0-.52-.23-.69-.52-.69-.58,0-1.44.34-2.54.34-1.79,0-2.94-.58-5.19-.58-1.33,0-2.57.31-3.64.89h0c-2.28,1.21-3.8,3.59-3.8,6.61,0,.14,0,.28.01.42h0c.14,2.96,1.76,5.18,6.33,8.92,3.86,3.23,5.94,5.3,6.8,7.54.32.84.47,1.71.47,2.67,0,.45-.05.89-.14,1.29h0c-.41,1.75-1.72,2.92-4.07,2.92-7.04,0-8.25-5.19-10.04-11.59-.11-.4-.23-.64-.52-.64s-.46.29-.34.75c.17,1.21,1.5,6,1.5,11.65,0,.52.23.69.52.69.58,0,1.38-.29,2.36-.29,1.73,0,3.23.58,6.29.58,2.08,0,4.02-.68,5.43-2.06,1.37-1.34,2.25-3.34,2.25-6.02,0-1.76-.39-3.21-1.23-4.62Z"/><path d="M96.05,38.41s-.07,0-.1.01c-.2.04-.26.21-.36.56-1.15,4.5-2.89,6.24-3.87,6.24s-1.84-.69-1.84-3.29c0-5.77.29-11.59.29-17.36,0-2.83-.73-4.93-1.98-6.4-.68-.8-1.52-1.41-2.49-1.83-1.19-.52-2.57-.77-4.07-.77-3.46,0-6.37,1.44-8,3.68-.7.97-1.17,2.08-1.33,3.3-.05.34-.07.68-.07,1.03,0,1.18.38,2.27,1.05,2.96.25.26.54.47.87.6.29.12.61.19.96.19,1.56,0,2.48-.98,2.48-2.48,0-1.73-.87-2.77-.87-4.56,0-2.31,1.33-3.58,3.81-3.58,2.82,0,4.96,1.85,4.96,8.14v.75c0,1.44-.92,2.88-2.25,3.46-3.63,1.73-7.33,3.69-9.71,6.22-1.28,1.36-2.18,2.9-2.48,4.66.32.84.47,1.71.47,2.67,0,.45-.05.89-.14,1.29h0c.26.76.65,1.44,1.13,2.02,1.07,1.28,2.65,2.06,4.61,2.06,3.35,0,4.73-1.61,7.15-6.52.46-.87,1.33-.87,1.09.12-1.04,4.33,1.56,6.4,4.33,6.4,3.47,0,5.09-2.58,6.35-8,.02-.08.21-.81.23-.89.12-.46,0-.69-.23-.69ZM85.49,34.44c0,5.71-3,9.81-6.35,9.81-2.6,0-3.75-2.08-3.75-4.67,0-4.1,3-7.27,7.85-9.69,1.33-.63,2.25,0,2.25,1.39v3.17Z"/><path d="M84.92,16.33c1.33,0,3.4.29,4.9.29h2.77c3,0,5.36-.17,8.25-.17h.4c2.88,0,5.42.17,8.19.17,1.38-.06,3.06-.29,4.38-.29.35,0,.52.12.52.46s-.17.46-.46.46c-2.6,0-4.62.81-5.94,5.31l-7.21,24.52c-.12.4-.46.63-.87.63h-.81c-.4,0-.75-.23-.87-.63l-7.38-24.52c-1.33-4.5-3.52-5.31-5.94-5.31-.35,0-.52-.12-.52-.4,0-.4.17-.52.58-.52ZM101.24,17.25h-.4c-5.83,0-6.29,1.85-5.02,6.11l4.73,16.38c.4,1.33.98,1.33,1.38,0l4.85-16.38c1.21-4.15.87-6.11-5.54-6.11Z"/></g></svg>